<svg width="92" height="28" viewBox="0 0 92 28" fill="none" xmlns="http://www.w3.org/2000/svg">
<path d="M91.3898 24.0409C91.3898 24.384 91.3222 24.7237 91.1908 25.0406C91.0594 25.3576 90.8668 25.6455 90.624 25.888C90.3812 26.1304 90.093 26.3227 89.7758 26.4537C89.4587 26.5848 89.1188 26.652 88.7756 26.6517H3.22456C2.53116 26.6524 1.86587 26.3778 1.37499 25.8882C0.884108 25.3986 0.607837 24.7341 0.606934 24.0409V3.22065C0.607837 2.52712 0.883998 1.8623 1.37478 1.37216C1.86556 0.88202 2.53085 0.606625 3.22456 0.606445H88.7749C89.1183 0.606445 89.4583 0.674069 89.7755 0.805453C90.0927 0.936837 90.381 1.12941 90.6237 1.37217C90.8665 1.61493 91.059 1.90312 91.1904 2.22029C91.3217 2.53745 91.3893 2.87738 91.3892 3.22065L91.3898 24.0409Z" fill="white"/>
<path d="M88.7755 27.2593H3.22447C2.37029 27.2591 1.55106 26.9202 0.946551 26.3168C0.342041 25.7135 0.00162528 24.8951 0 24.0411L0 3.22157C0.00126364 2.36719 0.341455 1.5482 0.945945 0.944249C1.55044 0.340302 2.36986 0.000721129 3.22447 0L88.7749 0C89.6294 0.00108096 90.4486 0.340778 91.053 0.944647C91.6574 1.54852 91.9977 2.3673 91.9993 3.22157V24.0411C92.0007 25.8162 90.5518 27.2593 88.7755 27.2593Z" fill="#A6A6A6"/>
<path d="M91.3898 24.0409C91.3898 24.384 91.3222 24.7237 91.1908 25.0406C91.0594 25.3576 90.8668 25.6455 90.624 25.888C90.3812 26.1304 90.093 26.3227 89.7758 26.4537C89.4587 26.5848 89.1188 26.652 88.7756 26.6517H3.22456C2.53116 26.6524 1.86587 26.3778 1.37499 25.8882C0.884108 25.3986 0.607837 24.7341 0.606934 24.0409V3.22065C0.607837 2.52712 0.883998 1.8623 1.37478 1.37216C1.86556 0.88202 2.53085 0.606625 3.22456 0.606445H88.7749C89.1183 0.606445 89.4583 0.674069 89.7755 0.805453C90.0927 0.936837 90.381 1.12941 90.6237 1.37217C90.8665 1.61493 91.059 1.90312 91.1904 2.22029C91.3217 2.53745 91.3893 2.87738 91.3892 3.22065L91.3898 24.0409Z" fill="black"/>
<path d="M20.5423 13.4865C20.5225 11.2895 22.3417 10.2206 22.4249 10.1709C21.3946 8.66913 19.7977 8.46395 19.2366 8.44759C17.8954 8.30649 16.5944 9.24992 15.9112 9.24992C15.2143 9.24992 14.1622 8.46123 13.0283 8.4844C11.5692 8.5069 10.2041 9.35149 9.45542 10.663C7.91034 13.3372 9.06267 17.267 10.543 19.4286C11.2835 20.4879 12.1487 21.6693 13.2813 21.6277C14.3893 21.5827 14.8032 20.9221 16.1403 20.9221C17.4651 20.9221 17.8538 21.6277 19.0088 21.6011C20.198 21.5827 20.9466 20.5377 21.6612 19.4695C22.5169 18.2568 22.8606 17.0612 22.8742 16.9998C22.847 16.9903 20.5655 16.1191 20.5423 13.4865ZM18.3604 7.02563C18.9563 6.28056 19.3641 5.26692 19.2509 4.23828C18.3883 4.27645 17.3096 4.83474 16.6885 5.56345C16.1389 6.20558 15.648 7.25808 15.7748 8.24786C16.7437 8.32012 17.7385 7.75911 18.3604 7.02563Z" fill="white"/>
<path d="M88.7754 0H42.9517L60.9 27.2593H88.7754C89.6298 27.2586 90.449 26.9192 91.0534 26.3155C91.6579 25.7119 91.9983 24.8932 91.9999 24.0391V3.22157C91.9984 2.36725 91.6582 1.54836 91.0537 0.944448C90.4493 0.34054 89.63 0.000901111 88.7754 0Z" fill="url(#paint0_linear_6036_48746)"/>
<path d="M36.5913 21.4755H35.0428L34.1945 18.8108H31.2462L30.4382 21.4755H28.9307L31.8524 12.4038H33.6566L36.5913 21.4755ZM33.9389 17.6929L33.1718 15.3241C33.0906 15.0821 32.9379 14.5122 32.7143 13.6151H32.687C32.597 14.001 32.4531 14.5708 32.256 15.3241L31.5019 17.6929H33.9389ZM44.0902 18.1244C44.0902 19.2369 43.7882 20.1162 43.1834 20.7618C42.642 21.3364 41.969 21.6234 41.1665 21.6234C40.2998 21.6234 39.6766 21.3146 39.2982 20.6957V24.1279H37.8445V17.0842C37.8445 16.3855 37.8261 15.669 37.7906 14.9342H39.0691L39.1502 15.971H39.1775C39.6623 15.1898 40.398 14.7992 41.3853 14.7992C42.1572 14.7992 42.8015 15.1039 43.317 15.714C43.8318 16.3255 44.0902 17.1285 44.0902 18.1244ZM42.6093 18.1776C42.6093 17.5409 42.4661 17.016 42.1783 16.6022C41.864 16.1721 41.4419 15.9567 40.9128 15.9567C40.5542 15.9567 40.2282 16.0767 39.9371 16.3132C39.6453 16.5518 39.4543 16.8633 39.365 17.2491C39.3251 17.3934 39.3025 17.5419 39.2975 17.6915V18.7829C39.2975 19.258 39.4434 19.6595 39.7353 19.9881C40.0271 20.3153 40.4062 20.4796 40.8726 20.4796C41.4201 20.4796 41.8463 20.2676 42.1511 19.847C42.4565 19.425 42.6093 18.8688 42.6093 18.1776ZM51.6158 18.1244C51.6158 19.2369 51.3138 20.1162 50.709 20.7618C50.1669 21.3364 49.4946 21.6234 48.6914 21.6234C47.8247 21.6234 47.2015 21.3146 46.8231 20.6957V24.1279H45.3694V17.0842C45.3694 16.3855 45.351 15.669 45.3155 14.9342H46.594L46.6751 15.971H46.7024C47.1865 15.1898 47.9222 14.7992 48.9102 14.7992C49.6814 14.7992 50.3258 15.1039 50.8426 15.714C51.3567 16.3255 51.6158 17.1285 51.6158 18.1244ZM50.1342 18.1776C50.1342 17.5409 49.9903 17.016 49.7025 16.6022C49.3882 16.1721 48.9675 15.9567 48.4384 15.9567C48.0797 15.9567 47.7538 16.0767 47.4613 16.3132C47.1695 16.5518 46.9792 16.8633 46.8899 17.2491C46.8456 17.4291 46.8217 17.5756 46.8217 17.6915V18.7829C46.8217 19.258 46.9683 19.6595 47.2588 19.9881C47.5506 20.3146 47.9297 20.4796 48.3975 20.4796C48.9457 20.4796 49.3719 20.2676 49.676 19.847C49.9814 19.425 50.1342 18.8688 50.1342 18.1776ZM60.0299 18.9308C60.0299 19.7031 59.7598 20.331 59.2232 20.8156C58.6327 21.3446 57.8084 21.6098 56.7515 21.6098C55.7751 21.6098 54.9923 21.4216 54.4019 21.0447L54.738 19.8333C55.3755 20.211 56.0758 20.3991 56.8381 20.3991C57.3863 20.3991 57.8125 20.2751 58.1166 20.029C58.4214 19.7822 58.5755 19.4523 58.5755 19.0406C58.5755 18.6718 58.448 18.363 58.1977 18.1114C57.9461 17.8606 57.5302 17.6268 56.9458 17.412C55.3571 16.8197 54.5621 15.9533 54.5621 14.8135C54.5621 14.0691 54.843 13.4597 55.4035 12.9832C55.964 12.5074 56.7072 12.2695 57.6318 12.2695C58.4575 12.2695 59.1455 12.4134 59.6917 12.7003L59.3269 13.8851C58.8128 13.607 58.2325 13.4679 57.5834 13.4679C57.0706 13.4679 56.6683 13.594 56.3806 13.8449C56.1385 14.0691 56.0158 14.3425 56.0158 14.667C56.0158 15.0248 56.1556 15.322 56.4338 15.5552C56.6751 15.7699 57.1156 16.0037 57.7525 16.2546C58.5339 16.5695 59.108 16.9362 59.4755 17.3575C59.8458 17.7788 60.0299 18.3044 60.0299 18.9308ZM64.8485 16.0248H63.2461V19.2007C63.2461 20.0085 63.5284 20.4114 64.0944 20.4114C64.3541 20.4114 64.5696 20.3896 64.7401 20.3439L64.7803 21.4475C64.4939 21.5546 64.1169 21.6084 63.6498 21.6084C63.0757 21.6084 62.627 21.4332 62.3031 21.0828C61.9806 20.7325 61.8183 20.1455 61.8183 19.3194V16.0221H60.8638V14.9315H61.8183V13.7338L63.2461 13.3029V14.9315H64.8485V16.0248ZM72.0638 18.151C72.0638 19.1564 71.7761 19.9819 71.202 20.6275C70.6013 21.2921 69.8021 21.6234 68.806 21.6234C67.8445 21.6234 67.0802 21.3051 66.5102 20.6691C65.9401 20.0317 65.6551 19.2287 65.6551 18.26C65.6551 17.2464 65.9497 16.4161 66.5368 15.7706C67.1252 15.1244 67.9175 14.8013 68.9137 14.8013C69.8737 14.8013 70.6449 15.1203 71.2286 15.757C71.7863 16.3745 72.0638 17.1721 72.0638 18.151ZM70.5569 18.1844C70.5569 17.5852 70.4274 17.0712 70.1676 16.6411C69.8628 16.1216 69.4264 15.8619 68.8612 15.8619C68.2789 15.8619 67.8323 16.1216 67.5282 16.6411C67.2677 17.0712 67.1381 17.5941 67.1381 18.2116C67.1381 18.8115 67.2677 19.3269 67.5282 19.7556C67.8425 20.2751 68.2809 20.5348 68.8489 20.5348C69.4046 20.5348 69.8403 20.2696 70.1553 19.7427C70.4226 19.3023 70.5569 18.7849 70.5569 18.1844ZM76.7911 16.2123C76.6399 16.185 76.4865 16.1716 76.3329 16.1721C75.8215 16.1721 75.426 16.3643 75.1478 16.7515C74.9065 17.0923 74.7851 17.5232 74.7851 18.0433V21.4755H73.3314V16.9942C73.3327 16.3075 73.3186 15.6209 73.2891 14.9349H74.5553L74.6085 16.1864H74.6487C74.8028 15.7563 75.0442 15.4093 75.3756 15.1496C75.6789 14.9226 76.0474 14.7997 76.4263 14.7992C76.5606 14.7992 76.682 14.8088 76.7897 14.8258L76.7911 16.2123ZM83.2925 17.8954C83.2962 18.1163 83.2784 18.337 83.2394 18.5545H78.8782C78.8946 19.2007 79.106 19.6956 79.511 20.0365C79.8785 20.3405 80.3538 20.4932 80.9374 20.4932C81.5831 20.4932 82.1723 20.3909 82.7021 20.1844L82.9298 21.1926C82.3107 21.4625 81.5797 21.5968 80.7363 21.5968C79.7217 21.5968 78.9253 21.2982 78.3457 20.7025C77.7675 20.106 77.4777 19.3044 77.4777 18.3003C77.4777 17.3146 77.7471 16.4932 78.2864 15.8381C78.851 15.1387 79.614 14.789 80.574 14.789C81.517 14.789 82.2309 15.1387 82.7157 15.8381C83.0996 16.3923 83.2925 17.0794 83.2925 17.8954ZM81.9063 17.5184C81.9166 17.0869 81.8211 16.7154 81.6241 16.4011C81.3724 15.9962 80.9852 15.7944 80.4663 15.7944C79.991 15.7944 79.6037 15.9914 79.3092 16.3868C79.0671 16.7011 78.9232 17.0787 78.8789 17.517L81.9063 17.5184Z" fill="white"/>
<path d="M30.8275 9.19524C30.4232 9.19524 30.0734 9.17548 29.7822 9.14207V4.75621C30.1894 4.69332 30.6009 4.66233 31.013 4.6635C32.6801 4.6635 33.4479 5.48355 33.4479 6.82031C33.4479 8.36224 32.541 9.19524 30.8275 9.19524ZM31.0716 5.22588C30.8466 5.22588 30.655 5.23952 30.4961 5.27224V8.60628C30.582 8.61992 30.747 8.62605 30.9789 8.62605C32.0712 8.62605 32.693 8.00437 32.693 6.84008C32.693 5.80189 32.1305 5.22588 31.0716 5.22588ZM35.8405 9.22865C34.9009 9.22865 34.292 8.52721 34.292 7.57492C34.292 6.5824 34.9138 5.87483 35.8936 5.87483C36.8196 5.87483 37.4421 6.54287 37.4421 7.52243C37.4421 8.52721 36.8005 9.22865 35.8405 9.22865ZM35.8677 6.39699C35.3516 6.39699 35.0209 6.87961 35.0209 7.55447C35.0209 8.21637 35.3584 8.69899 35.8609 8.69899C36.3634 8.69899 36.701 8.18297 36.701 7.54083C36.701 6.88643 36.3703 6.39699 35.8677 6.39699ZM42.8001 5.94095L41.7944 9.15571H41.1391L40.7225 7.75965C40.6189 7.41816 40.5327 7.07166 40.4641 6.72147H40.4505C40.398 7.07184 40.2984 7.4229 40.1927 7.75965L39.7495 9.15571H39.0874L38.141 5.94095H38.8754L39.2395 7.46926C39.3254 7.83327 39.3977 8.17683 39.4577 8.5013H39.4713C39.5238 8.23068 39.6097 7.89257 39.7359 7.47607L40.1927 5.94164H40.775L41.2121 7.44335C41.3178 7.80736 41.4037 8.16456 41.4705 8.50199H41.4896C41.536 8.17138 41.6089 7.82032 41.7078 7.44335L42.0985 5.94164L42.8001 5.94095ZM46.5026 9.15571H45.788V7.30975C45.788 6.74123 45.5698 6.4563 45.1395 6.4563C44.7161 6.4563 44.425 6.82031 44.425 7.24362V9.15571H43.7104V6.85984C43.7104 6.57559 43.7036 6.27088 43.6838 5.94027H44.3125L44.3459 6.43653H44.3656C44.5579 6.09297 44.9479 5.87483 45.385 5.87483C46.06 5.87483 46.5032 6.39086 46.5032 7.23067L46.5026 9.15571ZM48.4731 9.15571H47.7578V4.46582H48.4731V9.15571ZM51.0785 9.22865C50.1395 9.22865 49.53 8.52721 49.53 7.57492C49.53 6.5824 50.1518 5.87483 51.131 5.87483C52.0576 5.87483 52.6794 6.54287 52.6794 7.52243C52.6801 8.52721 52.0378 9.22865 51.0785 9.22865ZM51.105 6.39699C50.5889 6.39699 50.2582 6.87961 50.2582 7.55447C50.2582 8.21637 50.5964 8.69899 51.0975 8.69899C51.6008 8.69899 51.9376 8.18297 51.9376 7.54083C51.9383 6.88643 51.6082 6.39699 51.105 6.39699ZM55.4968 9.15571L55.445 8.78556H55.4259C55.2077 9.08345 54.8893 9.22865 54.4857 9.22865C53.9095 9.22865 53.5004 8.8251 53.5004 8.28249C53.5004 7.48903 54.1884 7.07866 55.3796 7.07866V7.01935C55.3796 6.59604 55.1552 6.38404 54.712 6.38404C54.395 6.38404 54.1168 6.46379 53.872 6.62262L53.7268 6.15295C54.024 5.96754 54.395 5.87483 54.8307 5.87483C55.6707 5.87483 56.0948 6.31792 56.0948 7.20477V8.38883C56.0948 8.7133 56.1091 8.96484 56.1412 9.15639L55.4968 9.15571ZM55.3987 7.55447C54.605 7.55447 54.2068 7.7467 54.2068 8.20273C54.2068 8.54016 54.412 8.70512 54.697 8.70512C55.0605 8.70512 55.3987 8.42768 55.3987 8.05072V7.55447ZM59.5648 9.15571L59.5313 8.63968H59.5116C59.3063 9.0296 58.9613 9.22865 58.4793 9.22865C57.704 9.22865 57.1299 8.54698 57.1299 7.58787C57.1299 6.5824 57.7251 5.87415 58.5379 5.87415C58.9681 5.87415 59.2729 6.01935 59.4448 6.3111H59.4591V4.46582H60.1743V8.28931C60.1743 8.60015 60.1818 8.89122 60.2009 9.15571H59.5648ZM59.4591 7.26407C59.4591 6.81417 59.1611 6.43039 58.7063 6.43039C58.1765 6.43039 57.8526 6.90006 57.8526 7.56128C57.8526 8.20955 58.1888 8.65332 58.692 8.65332C59.1413 8.65332 59.4591 8.26272 59.4591 7.79987V7.26407ZM64.7093 9.22865C63.7704 9.22865 63.1615 8.52721 63.1615 7.57492C63.1615 6.5824 63.7834 5.87483 64.7625 5.87483C65.6891 5.87483 66.311 6.54287 66.311 7.52243C66.3117 8.52721 65.67 9.22865 64.7093 9.22865ZM64.7359 6.39699C64.2204 6.39699 63.8897 6.87961 63.8897 7.55447C63.8897 8.21637 64.2273 8.69899 64.7291 8.69899C65.2323 8.69899 65.5691 8.18297 65.5691 7.54083C65.5705 6.88643 65.2398 6.39699 64.7359 6.39699ZM70.1539 9.15571H69.4386V7.30975C69.4386 6.74123 69.2204 6.4563 68.7902 6.4563C68.3668 6.4563 68.0763 6.82031 68.0763 7.24362V9.15571H67.361V6.85984C67.361 6.57559 67.3542 6.27088 67.3344 5.94027H67.9631L67.9965 6.43653H68.0163C68.2079 6.09297 68.5986 5.87415 69.035 5.87415C69.71 5.87415 70.1539 6.39017 70.1539 7.22999V9.15571ZM74.9616 6.47675H74.1754V8.03777C74.1754 8.43518 74.3132 8.63355 74.5914 8.63355C74.7175 8.63355 74.8232 8.61992 74.9084 8.60015L74.9282 9.14276C74.7898 9.19593 74.6043 9.22251 74.3739 9.22251C73.8107 9.22251 73.4738 8.91167 73.4738 8.09776V6.47675H73.0047V5.94095H73.4738V5.35199L74.1754 5.13999V5.94027H74.9616V6.47675ZM78.7445 9.15571H78.0306V7.32338C78.0306 6.74805 77.8131 6.45698 77.3822 6.45698C77.0119 6.45698 76.6669 6.70851 76.6669 7.21772V9.15571H75.953V4.46582H76.6669V6.39699H76.6812C76.9063 6.04661 77.2322 5.87415 77.6481 5.87415C78.3286 5.87415 78.7445 6.40313 78.7445 7.24362V9.15571ZM82.6202 7.72011H80.4757C80.4894 8.32884 80.8924 8.6724 81.489 8.6724C81.806 8.6724 82.0979 8.61923 82.3556 8.52039L82.4667 9.01665C82.1626 9.14889 81.8047 9.21501 81.3881 9.21501C80.3823 9.21501 79.7871 8.5797 79.7871 7.59468C79.7871 6.60899 80.3966 5.86801 81.3076 5.86801C82.1292 5.86801 82.6447 6.47675 82.6447 7.39632C82.6493 7.50484 82.6411 7.61353 82.6202 7.72011ZM81.9649 7.2109C81.9649 6.71465 81.7147 6.36427 81.2578 6.36427C80.8473 6.36427 80.5228 6.72147 80.4764 7.2109H81.9649Z" fill="white"/>
<defs>
<linearGradient id="paint0_linear_6036_48746" x1="67.475" y1="27.3317" x2="67.475" y2="-70.9785" gradientUnits="userSpaceOnUse">
<stop stop-color="#1A1A1A" stop-opacity="0.1"/>
<stop offset="0.123" stop-color="#212121" stop-opacity="0.151"/>
<stop offset="0.308" stop-color="#353535" stop-opacity="0.227"/>
<stop offset="0.532" stop-color="#575757" stop-opacity="0.318"/>
<stop offset="0.783" stop-color="#858585" stop-opacity="0.421"/>
<stop offset="1" stop-color="#B3B3B3" stop-opacity="0.51"/>
</linearGradient>
</defs>
</svg>
