<svg width="92" height="28" viewBox="0 0 92 28" fill="none" xmlns="http://www.w3.org/2000/svg">
<path d="M88.5691 27.2598H3.4065C1.49886 27.2598 0 25.761 0 23.8533V3.41432C0 1.50667 1.49886 0.0078125 3.4065 0.0078125H88.5691C90.4767 0.0078125 91.9756 1.50667 91.9756 3.41432V23.8533C91.9756 25.761 90.4767 27.2598 88.5691 27.2598Z" fill="black"/>
<path d="M88.5691 0.552853C90.1361 0.552853 91.4305 1.84732 91.4305 3.41432V23.8533C91.4305 25.4203 90.1361 26.7148 88.5691 26.7148H3.4065C1.83951 26.7148 0.54504 25.4203 0.54504 23.8533V3.41432C0.54504 1.84732 1.83951 0.552853 3.4065 0.552853H88.5691ZM88.5691 0.0078125H3.4065C1.49886 0.0078125 0 1.5748 0 3.41432V23.8533C0 25.761 1.49886 27.2598 3.4065 27.2598H88.5691C90.4767 27.2598 91.9756 25.761 91.9756 23.8533V3.41432C91.9756 1.5748 90.4767 0.0078125 88.5691 0.0078125Z" fill="#A6A6A6"/>
<path d="M32.2939 6.95728C32.2939 7.50232 32.1576 7.97923 31.8169 8.31988C31.4082 8.72866 30.9313 8.93305 30.3181 8.93305C29.7049 8.93305 29.228 8.72866 28.8192 8.31988C28.4104 7.9111 28.2061 7.43419 28.2061 6.82102C28.2061 6.20785 28.4104 5.73094 28.8192 5.32215C29.228 4.91337 29.7049 4.70898 30.3181 4.70898C30.5906 4.70898 30.8631 4.77711 31.1356 4.91337C31.4082 5.04963 31.6126 5.18589 31.7488 5.39028L31.4082 5.73093C31.1356 5.39028 30.795 5.25402 30.3181 5.25402C29.9093 5.25402 29.5005 5.39028 29.228 5.73093C28.8874 6.00346 28.7511 6.41224 28.7511 6.88915C28.7511 7.36606 28.8874 7.77484 29.228 8.04736C29.5687 8.31988 29.9093 8.52427 30.3181 8.52427C30.795 8.52427 31.1356 8.38801 31.4763 8.04736C31.6807 7.84297 31.8169 7.57045 31.8169 7.2298H30.3181V6.68476H32.2939V6.95728ZM35.4278 5.25402H33.5883V6.5485H35.2916V7.02541H33.5883V8.31988H35.4278V8.86492H33.0433V4.77711H35.4278V5.25402ZM37.6761 8.86492H37.1311V5.25402H35.9729V4.77711H38.8343V5.25402H37.6761V8.86492ZM40.8101 8.86492V4.77711H41.3552V8.86492H40.8101ZM43.6716 8.86492H43.1265V5.25402H41.9683V4.77711H44.7617V5.25402H43.6034V8.86492H43.6716ZM50.1439 8.31988C49.7351 8.72866 49.2582 8.93305 48.6451 8.93305C48.0319 8.93305 47.555 8.72866 47.1462 8.31988C46.7374 7.9111 46.533 7.43419 46.533 6.82102C46.533 6.20785 46.7374 5.73094 47.1462 5.32215C47.555 4.91337 48.0319 4.70898 48.6451 4.70898C49.2582 4.70898 49.7351 4.91337 50.1439 5.32215C50.5527 5.73094 50.7571 6.20785 50.7571 6.82102C50.7571 7.43419 50.5527 7.9111 50.1439 8.31988ZM47.555 7.97923C47.8275 8.25175 48.2363 8.45614 48.6451 8.45614C49.0538 8.45614 49.4626 8.31988 49.7351 7.97923C50.0077 7.70671 50.2121 7.29793 50.2121 6.82102C50.2121 6.34411 50.0758 5.93533 49.7351 5.66281C49.4626 5.39028 49.0538 5.18589 48.6451 5.18589C48.2363 5.18589 47.8275 5.32215 47.555 5.66281C47.2825 5.93533 47.0781 6.34411 47.0781 6.82102C47.0781 7.29793 47.2143 7.70671 47.555 7.97923ZM51.5065 8.86492V4.77711H52.1197L54.0955 7.97923V4.77711H54.6405V8.86492H54.0955L51.9834 5.52655V8.86492H51.5065Z" fill="white" stroke="white" strokeWidth="0.13626" stroke-miterlimit="10"/>
<path d="M46.3961 14.8613C44.761 14.8613 43.4665 16.0876 43.4665 17.7909C43.4665 19.426 44.761 20.7205 46.3961 20.7205C48.0312 20.7205 49.3257 19.4941 49.3257 17.7909C49.3257 16.0195 48.0312 14.8613 46.3961 14.8613ZM46.3961 19.4941C45.5104 19.4941 44.761 18.7447 44.761 17.7228C44.761 16.7008 45.5104 15.9514 46.3961 15.9514C47.2818 15.9514 48.0312 16.6327 48.0312 17.7228C48.0312 18.7447 47.2818 19.4941 46.3961 19.4941ZM40.06 14.8613C38.4249 14.8613 37.1304 16.0876 37.1304 17.7909C37.1304 19.426 38.4249 20.7205 40.06 20.7205C41.6951 20.7205 42.9896 19.4941 42.9896 17.7909C42.9896 16.0195 41.6951 14.8613 40.06 14.8613ZM40.06 19.4941C39.1743 19.4941 38.4249 18.7447 38.4249 17.7228C38.4249 16.7008 39.1743 15.9514 40.06 15.9514C40.9457 15.9514 41.6951 16.6327 41.6951 17.7228C41.6951 18.7447 40.9457 19.4941 40.06 19.4941ZM32.4976 15.747V16.9733H35.4272C35.359 17.6546 35.0865 18.1997 34.7459 18.5403C34.3371 18.9491 33.6558 19.426 32.4976 19.426C30.6581 19.426 29.2954 17.9953 29.2954 16.1558C29.2954 14.3163 30.7262 12.8855 32.4976 12.8855C33.4514 12.8855 34.2008 13.2943 34.7459 13.7712L35.6315 12.8855C34.8821 12.2042 33.9283 11.6592 32.5657 11.6592C30.113 11.6592 28.001 13.7031 28.001 16.1558C28.001 18.6084 30.113 20.6523 32.5657 20.6523C33.9283 20.6523 34.8821 20.2436 35.6997 19.3579C36.5172 18.5403 36.7898 17.3821 36.7898 16.4964C36.7898 16.2239 36.7898 15.9514 36.7216 15.747H32.4976ZM63.4286 16.7008C63.1561 16.0195 62.4748 14.8613 60.9759 14.8613C59.4771 14.8613 58.2507 16.0195 58.2507 17.7909C58.2507 19.426 59.4771 20.7205 61.1122 20.7205C62.4067 20.7205 63.2242 19.9029 63.4967 19.426L62.5429 18.7447C62.2023 19.2216 61.7935 19.5623 61.1122 19.5623C60.4309 19.5623 60.0221 19.2897 59.6814 18.6766L63.5649 17.0415L63.4286 16.7008ZM59.4771 17.6546C59.4771 16.5645 60.3628 15.9514 60.9759 15.9514C61.4528 15.9514 61.9297 16.2239 62.066 16.5645L59.4771 17.6546ZM56.2749 20.448H57.5694V11.9317H56.2749V20.448ZM54.231 15.4745C53.8904 15.1338 53.3454 14.7932 52.6641 14.7932C51.2333 14.7932 49.8707 16.0876 49.8707 17.7228C49.8707 19.3579 51.1652 20.5842 52.6641 20.5842C53.3454 20.5842 53.8904 20.2436 54.1629 19.9029H54.231V20.3117C54.231 21.4018 53.6179 22.0149 52.6641 22.0149C51.9146 22.0149 51.3696 21.4699 51.2333 20.993L50.1432 21.4699C50.4839 22.2193 51.3015 23.1732 52.7322 23.1732C54.231 23.1732 55.4574 22.2875 55.4574 20.1754V14.9976H54.231V15.4745ZM52.7322 19.4941C51.8465 19.4941 51.0971 18.7447 51.0971 17.7228C51.0971 16.7008 51.8465 15.9514 52.7322 15.9514C53.6179 15.9514 54.2992 16.7008 54.2992 17.7228C54.2992 18.7447 53.6179 19.4941 52.7322 19.4941ZM69.3559 11.9317H66.2901V20.448H67.5845V17.2458H69.3559C70.7867 17.2458 72.1493 16.2239 72.1493 14.5888C72.1493 12.9536 70.7867 11.9317 69.3559 11.9317ZM69.424 16.0195H67.5845V13.0899H69.424C70.3779 13.0899 70.9229 13.9075 70.9229 14.5206C70.8548 15.2701 70.3097 16.0195 69.424 16.0195ZM77.259 14.7932C76.3052 14.7932 75.3514 15.2019 75.0107 16.0876L76.1689 16.5645C76.4414 16.0876 76.8502 15.9514 77.3271 15.9514C78.0084 15.9514 78.6216 16.3602 78.6897 17.0415V17.1096C78.4853 16.9733 77.9403 16.7689 77.3953 16.7689C76.1689 16.7689 74.9426 17.4502 74.9426 18.6766C74.9426 19.8348 75.9645 20.5842 77.0546 20.5842C77.9403 20.5842 78.3491 20.1754 78.6897 19.7667H78.7579V20.448H79.9842V17.1777C79.8479 15.6789 78.6897 14.7932 77.259 14.7932ZM77.1227 19.4941C76.714 19.4941 76.1008 19.2897 76.1008 18.7447C76.1008 18.0634 76.8502 17.859 77.4634 17.859C78.0084 17.859 78.281 17.9953 78.6216 18.1315C78.4853 18.9491 77.804 19.4941 77.1227 19.4941ZM84.2764 14.9976L82.8457 18.6766H82.7775L81.2787 14.9976H79.9161L82.1644 20.1754L80.8699 23.0369H82.1644L85.639 14.9976H84.2764ZM72.8306 20.448H74.125V11.9317H72.8306V20.448Z" fill="white"/>
<path d="M7.08697 5.12402C6.88258 5.32841 6.81445 5.66906 6.81445 6.07784V21.1346C6.81445 21.5434 6.95071 21.884 7.1551 22.0884L7.22323 22.1565L15.6714 13.7084V13.5721L7.08697 5.12402Z" fill="url(#paint0_linear_6036_48756)"/>
<path d="M18.3964 16.5684L15.603 13.7751V13.5707L18.3964 10.7773L18.4645 10.8455L21.8029 12.7531C22.7567 13.2982 22.7567 14.1838 21.8029 14.7289L18.3964 16.5684Z" fill="url(#paint1_linear_6036_48756)"/>
<path d="M18.4646 16.5011L15.6032 13.6396L7.08691 22.1559C7.42756 22.4966 7.90447 22.4966 8.51765 22.224L18.4646 16.5011Z" fill="url(#paint2_linear_6036_48756)"/>
<path d="M18.4646 10.7782L8.51765 5.12337C7.90447 4.78272 7.42756 4.85085 7.08691 5.1915L15.6032 13.6396L18.4646 10.7782Z" fill="url(#paint3_linear_6036_48756)"/>
<path opacity="0.2" d="M18.3965 16.4336L8.51765 22.0203C7.9726 22.3609 7.49569 22.2928 7.15504 22.0203L7.08691 22.0884L7.15504 22.1565C7.49569 22.429 7.9726 22.4972 8.51765 22.1565L18.3965 16.4336Z" fill="black"/>
<path opacity="0.12" d="M7.08697 22.0196C6.88258 21.8153 6.81445 21.4746 6.81445 21.0658V21.134C6.81445 21.5427 6.95071 21.8834 7.1551 22.0878V22.0196H7.08697ZM21.8031 14.5253L18.3966 16.433L18.4647 16.5011L21.8031 14.5935C22.28 14.3209 22.4844 13.9803 22.4844 13.6396C22.4844 13.9803 22.2118 14.2528 21.8031 14.5253Z" fill="black"/>
<path opacity="0.25" d="M8.5177 5.19131L21.8031 12.7537C22.2118 13.0263 22.4844 13.2988 22.4844 13.6394C22.4844 13.2988 22.28 12.9581 21.8031 12.6856L8.5177 5.12318C7.56388 4.57814 6.81445 4.98692 6.81445 6.077V6.14513C6.81445 5.12318 7.56388 4.64627 8.5177 5.19131Z" fill="white"/>
<defs>
<linearGradient id="paint0_linear_6036_48756" x1="14.8538" y1="5.9484" x2="3.41953" y2="17.382" gradientUnits="userSpaceOnUse">
<stop stop-color="#00A0FF"/>
<stop offset="0.007" stop-color="#00A1FF"/>
<stop offset="0.26" stop-color="#00BEFF"/>
<stop offset="0.512" stop-color="#00D2FF"/>
<stop offset="0.76" stop-color="#00DFFF"/>
<stop offset="1" stop-color="#00E3FF"/>
</linearGradient>
<linearGradient id="paint1_linear_6036_48756" x1="23.0524" y1="13.6395" x2="6.56694" y2="13.6395" gradientUnits="userSpaceOnUse">
<stop stop-color="#FFE000"/>
<stop offset="0.409" stop-color="#FFBD00"/>
<stop offset="0.775" stop-color="#FFA500"/>
<stop offset="1" stop-color="#FF9C00"/>
</linearGradient>
<linearGradient id="paint2_linear_6036_48756" x1="16.916" y1="15.2039" x2="1.411" y2="30.709" gradientUnits="userSpaceOnUse">
<stop stop-color="#FF3A44"/>
<stop offset="1" stop-color="#C31162"/>
</linearGradient>
<linearGradient id="paint3_linear_6036_48756" x1="4.97284" y1="0.13353" x2="11.8969" y2="7.05759" gradientUnits="userSpaceOnUse">
<stop stop-color="#32A071"/>
<stop offset="0.069" stop-color="#2DA771"/>
<stop offset="0.476" stop-color="#15CF74"/>
<stop offset="0.801" stop-color="#06E775"/>
<stop offset="1" stop-color="#00F076"/>
</linearGradient>
</defs>
</svg>
