<svg width="1451" height="542" viewBox="0 0 1451 542" fill="none" xmlns="http://www.w3.org/2000/svg">
<mask id="mask0_6355_4301" style="mask-type:luminance" maskUnits="userSpaceOnUse" x="80" y="165" width="396" height="131">
<path d="M80 165.333H476V296H80V165.333Z" fill="white"/>
</mask>
<g mask="url(#mask0_6355_4301)">
<mask id="mask1_6355_4301" style="mask-type:luminance" maskUnits="userSpaceOnUse" x="74" y="0" width="408" height="407">
<path d="M481.391 178.323L303.068 406.563L74.8281 228.245L253.151 0L481.391 178.323Z" fill="white"/>
</mask>
<g mask="url(#mask1_6355_4301)">
<mask id="mask2_6355_4301" style="mask-type:luminance" maskUnits="userSpaceOnUse" x="74" y="0" width="408" height="407">
<path d="M481.391 178.323L303.068 406.563L74.8281 228.245L253.151 0L481.391 178.323Z" fill="white"/>
</mask>
<g mask="url(#mask2_6355_4301)">
<path d="M83.7028 216.88C88.6039 210.609 97.6716 209.495 103.942 214.396C210.994 298.036 366.151 278.984 449.791 171.932C454.692 165.656 463.76 164.547 470.031 169.448C476.302 174.344 477.416 183.411 472.515 189.682C449.646 218.953 421.729 242.885 389.515 260.791C358.396 278.088 324.656 289.052 289.198 293.406C253.734 297.76 218.323 295.265 183.963 286.026C148.38 276.448 115.5 259.979 86.2289 237.114C79.9164 232.219 78.8018 223.151 83.7028 216.88Z" fill="#0A703F"/>
</g>
</g>
</g>
<mask id="mask3_6355_4301" style="mask-type:luminance" maskUnits="userSpaceOnUse" x="137" y="111" width="101" height="320">
<path d="M137.458 111.026H237.333V430.667H137.458V111.026Z" fill="white"/>
</mask>
<g mask="url(#mask3_6355_4301)">
<mask id="mask4_6355_4301" style="mask-type:luminance" maskUnits="userSpaceOnUse" x="137" y="111" width="101" height="320">
<path d="M187.396 111.026C214.974 111.026 237.333 133.386 237.333 160.969V380.698C237.333 408.276 214.974 430.636 187.396 430.636C159.812 430.636 137.458 408.276 137.458 380.698V160.969C137.458 133.386 159.812 111.026 187.396 111.026Z" fill="white"/>
</mask>
<g mask="url(#mask4_6355_4301)">
<path d="M137.458 111.026H237.333V430.558H137.458V111.026Z" fill="#0A703F"/>
</g>
</g>
<mask id="mask5_6355_4301" style="mask-type:luminance" maskUnits="userSpaceOnUse" x="177" y="131" width="61" height="60">
<path d="M177.406 131.005H237.333V190.927H177.406V131.005Z" fill="white"/>
</mask>
<g mask="url(#mask5_6355_4301)">
<mask id="mask6_6355_4301" style="mask-type:luminance" maskUnits="userSpaceOnUse" x="177" y="131" width="61" height="60">
<path d="M207.37 131.005C190.823 131.005 177.406 144.416 177.406 160.968C177.406 177.515 190.823 190.927 207.37 190.927C223.917 190.927 237.333 177.515 237.333 160.968C237.333 144.416 223.917 131.005 207.37 131.005Z" fill="white"/>
</mask>
<g mask="url(#mask6_6355_4301)">
<path d="M177.406 131.005H237.333V190.927H177.406V131.005Z" fill="#FF6300"/>
<path d="M207.37 131.005C190.823 131.005 177.406 144.416 177.406 160.968C177.406 177.515 190.823 190.927 207.37 190.927C223.917 190.927 237.333 177.515 237.333 160.968C237.333 144.416 223.917 131.005 207.37 131.005Z" stroke="white" strokeWidth="11.9853"/>
</g>
</g>
<mask id="mask7_6355_4301" style="mask-type:luminance" maskUnits="userSpaceOnUse" x="303" y="71" width="101" height="400">
<path d="M303.917 71.0781H403.797V470.583H303.917V71.0781Z" fill="white"/>
</mask>
<g mask="url(#mask7_6355_4301)">
<mask id="mask8_6355_4301" style="mask-type:luminance" maskUnits="userSpaceOnUse" x="303" y="71" width="101" height="400">
<path d="M353.86 71.0781C381.438 71.0781 403.797 93.4375 403.797 121.016V420.646C403.797 448.229 381.438 470.583 353.86 470.583C326.276 470.583 303.917 448.229 303.917 420.646V121.016C303.917 93.4375 326.276 71.0781 353.86 71.0781Z" fill="white"/>
</mask>
<g mask="url(#mask8_6355_4301)">
<path d="M303.917 71.0781H403.797V470.583H303.917V71.0781Z" fill="#0A703F"/>
</g>
</g>
<mask id="mask9_6355_4301" style="mask-type:luminance" maskUnits="userSpaceOnUse" x="303" y="91" width="61" height="60">
<path d="M303.917 91.0518H363.844V150.979H303.917V91.0518Z" fill="white"/>
</mask>
<g mask="url(#mask9_6355_4301)">
<mask id="mask10_6355_4301" style="mask-type:luminance" maskUnits="userSpaceOnUse" x="303" y="91" width="61" height="60">
<path d="M333.881 91.0518C317.334 91.0518 303.917 104.468 303.917 121.015C303.917 137.562 317.334 150.979 333.881 150.979C350.427 150.979 363.844 137.562 363.844 121.015C363.844 104.468 350.427 91.0518 333.881 91.0518Z" fill="white"/>
</mask>
<g mask="url(#mask10_6355_4301)">
<path d="M303.917 91.0518H363.844V150.979H303.917V91.0518Z" fill="#FF6300"/>
<path d="M333.881 91.0518C317.334 91.0518 303.917 104.468 303.917 121.015C303.917 137.562 317.334 150.979 333.881 150.979C350.427 150.979 363.844 137.562 363.844 121.015C363.844 104.468 350.427 91.0518 333.881 91.0518Z" stroke="white" strokeWidth="11.9853"/>
</g>
</g>
<path d="M690.697 262.05C689.223 262.44 686.926 262.836 683.801 263.237C680.676 263.638 677.577 263.841 674.509 263.841C671.452 263.841 668.759 263.602 666.426 263.133C664.092 262.675 662.124 261.852 660.53 260.654C658.931 259.446 657.728 257.779 656.926 255.654C656.134 253.519 655.738 250.716 655.738 247.258V216.091H617.384V262.05C615.926 262.44 613.624 262.836 610.488 263.237C607.363 263.638 604.264 263.841 601.197 263.841C598.139 263.841 595.447 263.602 593.113 263.133C590.78 262.675 588.811 261.852 587.217 260.654C585.618 259.446 584.415 257.779 583.613 255.654C582.822 253.519 582.426 250.716 582.426 247.258V141.8C583.895 141.524 586.228 141.154 589.426 140.696C592.618 140.227 595.681 139.987 598.613 139.987C601.665 139.987 604.363 140.227 606.697 140.696C609.03 141.154 610.993 141.987 612.592 143.196C614.186 144.394 615.384 146.06 616.176 148.196C616.978 150.321 617.384 153.112 617.384 156.571V188.529H655.738V141.8C657.197 141.524 659.52 141.154 662.717 140.696C665.926 140.227 668.993 139.987 671.926 139.987C674.978 139.987 677.676 140.227 680.009 140.696C682.342 141.154 684.306 141.987 685.905 143.196C687.499 144.394 688.697 146.06 689.488 148.196C690.29 150.321 690.697 153.112 690.697 156.571V262.05Z" fill="#FF6300"/>
<path d="M742.432 145.383C744.692 144.05 748.125 142.789 752.724 141.591C757.317 140.399 761.942 139.8 766.599 139.8C773.265 139.8 779.161 140.769 784.286 142.696C789.411 144.628 792.703 147.654 794.161 151.779C796.562 158.711 799.161 166.774 801.953 175.966C804.755 185.149 807.557 194.633 810.349 204.425C813.14 214.206 815.869 223.857 818.536 233.383C821.203 242.899 823.536 251.321 825.536 258.654C823.937 260.519 821.536 262.008 818.328 263.133C815.13 264.269 811.338 264.841 806.953 264.841C803.755 264.841 801.057 264.571 798.849 264.029C796.651 263.498 794.854 262.711 793.453 261.654C792.062 260.586 790.932 259.185 790.057 257.446C789.192 255.711 788.437 253.711 787.786 251.446L784.182 237.675H748.036C746.963 241.675 745.896 245.81 744.828 250.071C743.755 254.321 742.692 258.446 741.64 262.446C739.765 263.112 737.791 263.675 735.724 264.133C733.666 264.602 731.172 264.841 728.244 264.841C721.453 264.841 716.422 263.675 713.161 261.341C709.911 259.008 708.286 255.779 708.286 251.654C708.286 249.795 708.547 247.935 709.078 246.071C709.604 244.196 710.203 241.998 710.869 239.466C711.797 235.873 713.099 231.414 714.765 226.091C716.432 220.758 718.265 215.003 720.265 208.821C722.265 202.628 724.396 196.269 726.661 189.737C728.922 183.211 731.047 177.05 733.036 171.258C735.036 165.466 736.869 160.31 738.536 155.779C740.203 151.253 741.5 147.789 742.432 145.383ZM766.411 171.154C764.536 176.753 762.432 182.982 760.099 189.841C757.776 196.69 755.687 203.649 753.828 210.716H778.578C776.713 203.524 774.817 196.498 772.89 189.633C770.958 182.774 769.192 176.612 767.599 171.154H766.411Z" fill="#FF6300"/>
<path d="M836.323 169.758C835.391 168.299 834.521 166.31 833.719 163.779C832.927 161.237 832.531 158.57 832.531 155.779C832.531 150.586 833.687 146.857 836.01 144.591C838.344 142.331 841.375 141.195 845.115 141.195H932.198C933.125 142.654 933.99 144.654 934.781 147.195C935.583 149.727 935.99 152.383 935.99 155.174C935.99 160.372 934.823 164.102 932.49 166.362C930.167 168.628 927.141 169.758 923.406 169.758H901.24V262.049C899.766 262.44 897.469 262.836 894.344 263.237C891.219 263.638 888.12 263.841 885.052 263.841C881.995 263.841 879.302 263.602 876.969 263.133C874.635 262.674 872.667 261.852 871.073 260.654C869.474 259.445 868.271 257.779 867.469 255.654C866.677 253.518 866.281 250.716 866.281 247.258V169.758H836.323Z" fill="#FF6300"/>
<path d="M1061.24 262.05C1059.77 262.44 1057.47 262.836 1054.34 263.237C1051.22 263.638 1048.12 263.841 1045.05 263.841C1042 263.841 1039.3 263.602 1036.97 263.133C1034.64 262.675 1032.67 261.852 1031.07 260.654C1029.47 259.446 1028.27 257.779 1027.47 255.654C1026.68 253.519 1026.28 250.716 1026.28 247.258V216.091H987.928V262.05C986.47 262.44 984.168 262.836 981.032 263.237C977.907 263.638 974.808 263.841 971.741 263.841C968.683 263.841 965.991 263.602 963.657 263.133C961.324 262.675 959.355 261.852 957.761 260.654C956.162 259.446 954.959 257.779 954.157 255.654C953.366 253.519 952.97 250.716 952.97 247.258V141.8C954.438 141.524 956.772 141.154 959.97 140.696C963.162 140.227 966.225 139.987 969.157 139.987C972.209 139.987 974.907 140.227 977.241 140.696C979.574 141.154 981.537 141.987 983.136 143.196C984.73 144.394 985.928 146.06 986.72 148.196C987.522 150.321 987.928 153.112 987.928 156.571V188.529H1026.28V141.8C1027.74 141.524 1030.06 141.154 1033.26 140.696C1036.47 140.227 1039.54 139.987 1042.47 139.987C1045.52 139.987 1048.22 140.227 1050.55 140.696C1052.89 141.154 1054.85 141.987 1056.45 143.196C1058.04 144.394 1059.24 146.06 1060.03 148.196C1060.83 150.321 1061.24 153.112 1061.24 156.571V262.05Z" fill="#FF6300"/>
<path d="M1150.73 262.049C1149.27 262.44 1147 262.836 1143.93 263.237C1140.88 263.638 1137.88 263.841 1134.95 263.841C1128.83 263.841 1124.23 262.815 1121.16 260.758C1118.11 258.69 1116.58 254.32 1116.58 247.654V220.695C1113.25 215.768 1109.65 210.31 1105.79 204.32C1101.92 198.32 1098.13 192.195 1094.39 185.945C1090.67 179.685 1087.21 173.523 1084.02 167.466C1080.82 161.398 1078.23 155.836 1076.23 150.779C1077.96 148.393 1080.32 146.195 1083.31 144.195C1086.31 142.195 1090 141.195 1094.39 141.195C1099.58 141.195 1103.81 142.268 1107.08 144.404C1110.34 146.529 1113.44 150.523 1116.37 156.383L1132.95 189.737H1134.14C1136.02 185.612 1137.65 181.857 1139.04 178.466C1140.44 175.065 1141.81 171.669 1143.14 168.279C1144.48 164.878 1145.87 161.341 1147.33 157.674C1148.8 154.008 1150.47 149.779 1152.33 144.987C1154.72 143.794 1157.38 142.862 1160.31 142.195C1163.24 141.529 1166.04 141.195 1168.7 141.195C1173.37 141.195 1177.33 142.435 1180.6 144.904C1183.86 147.362 1185.5 151.049 1185.5 155.966C1185.5 157.565 1185.16 159.497 1184.5 161.758C1183.83 164.023 1182.29 167.456 1179.89 172.049C1177.49 176.648 1173.99 182.878 1169.39 190.737C1164.81 198.586 1158.58 208.836 1150.73 221.487V262.049Z" fill="#FF6300"/>
<path d="M1195.88 202.112C1195.88 191.727 1197.51 182.539 1200.76 174.549C1204.02 166.565 1208.48 159.878 1214.13 154.487C1219.8 149.086 1226.46 144.987 1234.11 142.195C1241.78 139.404 1250.07 138.008 1258.99 138.008C1267.92 138.008 1276.21 139.404 1283.86 142.195C1291.51 144.987 1298.2 149.086 1303.93 154.487C1309.66 159.878 1314.16 166.565 1317.43 174.549C1320.69 182.539 1322.32 191.727 1322.32 202.112C1322.32 212.503 1320.72 221.727 1317.53 229.779C1314.33 237.836 1309.91 244.565 1304.24 249.966C1298.58 255.357 1291.89 259.456 1284.16 262.258C1276.43 265.049 1268.04 266.445 1258.99 266.445C1249.93 266.445 1241.54 265.013 1233.82 262.154C1226.1 259.279 1219.44 255.112 1213.84 249.654C1208.26 244.195 1203.87 237.477 1200.68 229.487C1197.48 221.503 1195.88 212.378 1195.88 202.112ZM1231.82 202.112C1231.82 214.237 1234.29 223.299 1239.22 229.299C1244.15 235.289 1250.74 238.279 1258.99 238.279C1267.37 238.279 1274.04 235.289 1278.97 229.299C1283.9 223.299 1286.36 214.237 1286.36 202.112C1286.36 190.128 1283.93 181.143 1279.07 175.154C1274.21 169.154 1267.58 166.154 1259.2 166.154C1250.95 166.154 1244.32 169.122 1239.32 175.049C1234.32 180.982 1231.82 190.003 1231.82 202.112Z" fill="#FF6300"/>
<path d="M634.746 388.588H628.121V361.713H598.163V388.588H591.538V331.546H598.163V355.858H628.121V331.546H634.746V388.588Z" fill="white"/>
<path d="M665.451 345.129C670.544 345.129 674.331 346.275 676.805 348.566C679.273 350.858 680.513 354.514 680.513 359.525V388.587H675.805L674.555 382.275H674.242C673.044 383.832 671.794 385.139 670.492 386.191C669.185 387.249 667.68 388.04 665.971 388.566C664.273 389.092 662.19 389.358 659.721 389.358C657.122 389.358 654.815 388.905 652.805 388.004C650.789 387.087 649.201 385.707 648.034 383.858C646.878 382.014 646.305 379.671 646.305 376.837C646.305 372.577 647.992 369.306 651.367 367.025C654.753 364.733 659.909 363.483 666.826 363.275L674.201 362.962V360.337C674.201 356.645 673.398 354.061 671.805 352.587C670.221 351.103 667.992 350.358 665.117 350.358C662.878 350.358 660.742 350.686 658.701 351.337C656.669 351.993 654.747 352.754 652.93 353.629L650.951 348.712C652.867 347.728 655.076 346.889 657.576 346.191C660.076 345.483 662.701 345.129 665.451 345.129ZM674.117 367.525L667.596 367.796C662.273 368.004 658.518 368.879 656.326 370.421C654.143 371.952 653.055 374.118 653.055 376.921C653.055 379.368 653.789 381.181 655.263 382.358C656.747 383.525 658.711 384.108 661.159 384.108C664.961 384.108 668.076 383.056 670.492 380.941C672.909 378.832 674.117 375.671 674.117 371.462V367.525Z" fill="white"/>
<path d="M713.952 345.046C719.286 345.046 723.536 346.879 726.702 350.546C729.88 354.213 731.473 359.728 731.473 367.088C731.473 371.952 730.744 376.035 729.286 379.338C727.827 382.645 725.775 385.145 723.14 386.838C720.499 388.52 717.39 389.358 713.807 389.358C711.541 389.358 709.546 389.056 707.827 388.463C706.104 387.869 704.63 387.062 703.411 386.046C702.187 385.035 701.171 383.931 700.369 382.733H699.911C699.994 383.749 700.088 384.973 700.202 386.4C700.312 387.832 700.369 389.077 700.369 390.15V407.713H693.869V345.838H699.202L700.057 352.15H700.369C701.202 350.848 702.213 349.66 703.411 348.588C704.619 347.504 706.083 346.645 707.807 346.004C709.541 345.369 711.588 345.046 713.952 345.046ZM712.827 350.504C709.854 350.504 707.463 351.082 705.661 352.233C703.854 353.374 702.536 355.082 701.702 357.358C700.869 359.64 700.421 362.494 700.369 365.921V367.171C700.369 370.785 700.765 373.838 701.557 376.338C702.359 378.838 703.682 380.744 705.515 382.046C707.348 383.338 709.812 383.983 712.911 383.983C715.562 383.983 717.77 383.27 719.536 381.838C721.296 380.41 722.619 378.416 723.494 375.858C724.369 373.291 724.807 370.338 724.807 367.004C724.807 361.963 723.817 357.957 721.848 354.983C719.89 351.999 716.88 350.504 712.827 350.504Z" fill="white"/>
<path d="M762.838 345.046C768.172 345.046 772.422 346.879 775.588 350.546C778.765 354.213 780.359 359.728 780.359 367.088C780.359 371.952 779.63 376.035 778.172 379.338C776.713 382.645 774.661 385.145 772.026 386.838C769.385 388.52 766.276 389.358 762.692 389.358C760.427 389.358 758.432 389.056 756.713 388.463C754.989 387.869 753.515 387.062 752.297 386.046C751.073 385.035 750.057 383.931 749.255 382.733H748.797C748.88 383.749 748.974 384.973 749.088 386.4C749.198 387.832 749.255 389.077 749.255 390.15V407.713H742.755V345.838H748.088L748.942 352.15H749.255C750.088 350.848 751.099 349.66 752.297 348.588C753.505 347.504 754.968 346.645 756.692 346.004C758.427 345.369 760.474 345.046 762.838 345.046ZM761.713 350.504C758.739 350.504 756.349 351.082 754.547 352.233C752.739 353.374 751.422 355.082 750.588 357.358C749.755 359.64 749.307 362.494 749.255 365.921V367.171C749.255 370.785 749.651 373.838 750.442 376.338C751.244 378.838 752.567 380.744 754.401 382.046C756.234 383.338 758.698 383.983 761.797 383.983C764.448 383.983 766.656 383.27 768.422 381.838C770.182 380.41 771.505 378.416 772.38 375.858C773.255 373.291 773.692 370.338 773.692 367.004C773.692 361.963 772.703 357.957 770.734 354.983C768.776 351.999 765.765 350.504 761.713 350.504Z" fill="white"/>
<path d="M784.89 345.837H791.827L801.265 370.649C801.817 372.097 802.327 373.493 802.785 374.837C803.254 376.17 803.671 377.451 804.035 378.67C804.395 379.894 804.681 381.082 804.89 382.233H805.16C805.535 380.931 806.056 379.222 806.723 377.108C807.4 374.983 808.129 372.816 808.91 370.608L817.848 345.837H824.827L806.223 394.858C805.233 397.493 804.082 399.785 802.765 401.733C801.457 403.675 799.869 405.175 797.994 406.233C796.119 407.285 793.853 407.816 791.202 407.816C789.978 407.816 788.895 407.743 787.952 407.608C787.02 407.467 786.223 407.3 785.556 407.108V401.92C786.124 402.056 786.817 402.175 787.64 402.274C788.457 402.384 789.306 402.441 790.181 402.441C791.806 402.441 793.207 402.134 794.39 401.524C795.567 400.91 796.588 400.014 797.452 398.837C798.312 397.67 799.046 396.28 799.66 394.67L802.015 388.67L784.89 345.837Z" fill="white"/>
<path d="M896.612 388.588H889.987V361.713H860.028V388.588H853.403V331.546H860.028V355.858H889.987V331.546H896.612V388.588Z" fill="white"/>
<path d="M927.795 345.046C931.43 345.046 934.55 345.853 937.149 347.463C939.758 349.077 941.753 351.332 943.128 354.233C944.503 357.14 945.19 360.525 945.19 364.4V368.421H915.67C915.737 373.437 916.982 377.265 919.399 379.9C921.815 382.525 925.222 383.838 929.628 383.838C932.336 383.838 934.722 383.588 936.795 383.088C938.878 382.588 941.034 381.858 943.274 380.9V386.588C941.118 387.562 938.982 388.265 936.857 388.692C934.743 389.134 932.243 389.358 929.357 389.358C925.243 389.358 921.659 388.525 918.607 386.858C915.55 385.181 913.175 382.713 911.482 379.463C909.784 376.213 908.94 372.233 908.94 367.525C908.94 362.916 909.711 358.931 911.253 355.567C912.805 352.192 914.993 349.598 917.815 347.775C920.649 345.957 923.972 345.046 927.795 345.046ZM927.711 350.358C924.253 350.358 921.493 351.494 919.44 353.754C917.383 356.02 916.159 359.181 915.774 363.233H938.399C938.368 360.681 937.972 358.437 937.211 356.504C936.446 354.562 935.279 353.056 933.711 351.983C932.154 350.9 930.154 350.358 927.711 350.358Z" fill="white"/>
<path d="M972.182 345.129C977.276 345.129 981.062 346.275 983.536 348.566C986.005 350.858 987.244 354.514 987.244 359.525V388.587H982.536L981.286 382.275H980.974C979.776 383.832 978.526 385.139 977.224 386.191C975.916 387.249 974.411 388.04 972.703 388.566C971.005 389.092 968.922 389.358 966.453 389.358C963.854 389.358 961.547 388.905 959.536 388.004C957.521 387.087 955.932 385.707 954.765 383.858C953.609 382.014 953.036 379.671 953.036 376.837C953.036 372.577 954.724 369.306 958.099 367.025C961.484 364.733 966.64 363.483 973.557 363.275L980.932 362.962V360.337C980.932 356.645 980.13 354.061 978.536 352.587C976.953 351.103 974.724 350.358 971.849 350.358C969.609 350.358 967.474 350.686 965.432 351.337C963.401 351.993 961.479 352.754 959.661 353.629L957.682 348.712C959.599 347.728 961.807 346.889 964.307 346.191C966.807 345.483 969.432 345.129 972.182 345.129ZM980.849 367.525L974.328 367.796C969.005 368.004 965.25 368.879 963.057 370.421C960.875 371.952 959.786 374.118 959.786 376.921C959.786 379.368 960.521 381.181 961.994 382.358C963.479 383.525 965.442 384.108 967.89 384.108C971.692 384.108 974.807 383.056 977.224 380.941C979.64 378.832 980.849 375.671 980.849 371.462V367.525Z" fill="white"/>
<path d="M1007.1 388.587H1000.6V327.879H1007.1V388.587Z" fill="white"/>
<path d="M1034.58 384.067C1035.64 384.067 1036.72 383.978 1037.83 383.796C1038.96 383.619 1039.88 383.395 1040.58 383.129V388.15C1039.83 388.499 1038.78 388.78 1037.44 389.004C1036.11 389.239 1034.8 389.358 1033.52 389.358C1031.26 389.358 1029.2 388.963 1027.36 388.171C1025.51 387.379 1024.03 386.041 1022.92 384.15C1021.82 382.249 1021.27 379.619 1021.27 376.254V350.9H1015.19V347.733L1021.31 345.213L1023.9 335.921H1027.79V345.838H1040.31V350.9H1027.79V376.067C1027.79 378.749 1028.41 380.754 1029.65 382.088C1030.88 383.41 1032.53 384.067 1034.58 384.067Z" fill="white"/>
<path d="M1055.73 327.879V346.025C1055.73 347.066 1055.7 348.118 1055.65 349.171C1055.59 350.228 1055.5 351.191 1055.38 352.066H1055.79C1056.68 350.566 1057.81 349.306 1059.17 348.275C1060.54 347.249 1062.1 346.473 1063.84 345.941C1065.57 345.4 1067.42 345.129 1069.38 345.129C1072.81 345.129 1075.67 345.681 1077.98 346.775C1080.28 347.858 1082.01 349.546 1083.17 351.837C1084.32 354.129 1084.9 357.098 1084.9 360.733V388.587H1078.5V361.171C1078.5 357.603 1077.69 354.936 1076.07 353.171C1074.44 351.395 1071.95 350.504 1068.59 350.504C1065.42 350.504 1062.89 351.118 1061 352.337C1059.13 353.546 1057.78 355.327 1056.96 357.671C1056.14 360.004 1055.73 362.858 1055.73 366.233V388.587H1049.25V327.879H1055.73Z" fill="white"/>
<path d="M1091.5 345.837H1098.44L1107.88 370.649C1108.43 372.097 1108.94 373.493 1109.4 374.837C1109.87 376.17 1110.29 377.451 1110.65 378.67C1111.01 379.894 1111.3 381.082 1111.5 382.233H1111.78C1112.15 380.931 1112.67 379.222 1113.34 377.108C1114.02 374.983 1114.74 372.816 1115.53 370.608L1124.46 345.837H1131.44L1112.84 394.858C1111.85 397.493 1110.7 399.785 1109.38 401.733C1108.07 403.675 1106.48 405.175 1104.61 406.233C1102.73 407.285 1100.47 407.816 1097.82 407.816C1096.59 407.816 1095.51 407.743 1094.57 407.608C1093.64 407.467 1092.84 407.3 1092.17 407.108V401.92C1092.74 402.056 1093.43 402.175 1094.25 402.274C1095.07 402.384 1095.92 402.441 1096.8 402.441C1098.42 402.441 1099.82 402.134 1101 401.524C1102.18 400.91 1103.2 400.014 1104.07 398.837C1104.93 397.67 1105.66 396.28 1106.28 394.67L1108.63 388.67L1091.5 345.837Z" fill="white"/>
<path d="M1174.56 360.15L1189.73 331.546H1196.87L1177.87 366.463V388.588H1171.25V366.775L1152.21 331.546H1159.46L1174.56 360.15Z" fill="white"/>
<path d="M1240.57 367.129C1240.57 370.645 1240.11 373.785 1239.19 376.546C1238.28 379.296 1236.97 381.624 1235.25 383.525C1233.54 385.416 1231.47 386.858 1229.04 387.858C1226.61 388.858 1223.86 389.358 1220.79 389.358C1217.93 389.358 1215.31 388.858 1212.92 387.858C1210.54 386.858 1208.49 385.416 1206.75 383.525C1205.03 381.624 1203.69 379.296 1202.73 376.546C1201.78 373.785 1201.32 370.645 1201.32 367.129C1201.32 362.452 1202.11 358.463 1203.69 355.171C1205.28 351.879 1207.56 349.374 1210.5 347.65C1213.46 345.916 1216.98 345.046 1221.07 345.046C1224.97 345.046 1228.38 345.921 1231.29 347.671C1234.22 349.41 1236.5 351.921 1238.13 355.213C1239.75 358.504 1240.57 362.478 1240.57 367.129ZM1208.04 367.129C1208.04 370.562 1208.49 373.541 1209.4 376.067C1210.32 378.598 1211.72 380.546 1213.61 381.921C1215.51 383.296 1217.95 383.983 1220.94 383.983C1223.91 383.983 1226.35 383.296 1228.25 381.921C1230.17 380.546 1231.58 378.598 1232.48 376.067C1233.4 373.541 1233.86 370.562 1233.86 367.129C1233.86 363.728 1233.4 360.785 1232.48 358.296C1231.58 355.812 1230.17 353.895 1228.27 352.546C1226.38 351.187 1223.92 350.504 1220.9 350.504C1216.45 350.504 1213.2 351.978 1211.13 354.921C1209.07 357.869 1208.04 361.937 1208.04 367.129Z" fill="white"/>
<path d="M1287.07 345.837V388.587H1281.78L1280.84 382.587H1280.49C1279.59 384.061 1278.45 385.306 1277.05 386.316C1275.64 387.332 1274.06 388.087 1272.3 388.587C1270.55 389.097 1268.68 389.358 1266.71 389.358C1263.32 389.358 1260.49 388.816 1258.19 387.733C1255.91 386.639 1254.19 384.951 1253.03 382.67C1251.87 380.379 1251.3 377.436 1251.3 373.837V345.837H1257.86V373.379C1257.86 376.936 1258.66 379.597 1260.28 381.358C1261.89 383.108 1264.34 383.983 1267.65 383.983C1270.82 383.983 1273.34 383.389 1275.24 382.191C1277.12 380.998 1278.49 379.243 1279.32 376.92C1280.15 374.587 1280.57 371.728 1280.57 368.337V345.837H1287.07Z" fill="white"/>
<path d="M1306.63 372.754H1302.36L1300.57 331.546H1308.42L1306.63 372.754ZM1299.8 384.525C1299.8 382.707 1300.24 381.416 1301.11 380.65C1302 379.89 1303.11 379.504 1304.45 379.504C1305.74 379.504 1306.83 379.89 1307.74 380.65C1308.64 381.416 1309.09 382.707 1309.09 384.525C1309.09 386.317 1308.64 387.624 1307.74 388.442C1306.83 389.259 1305.74 389.671 1304.45 389.671C1303.11 389.671 1302 389.259 1301.11 388.442C1300.24 387.624 1299.8 386.317 1299.8 384.525Z" fill="white"/>
</svg>
