<?xml version="1.0" standalone="no"?>
<!DOCTYPE svg PUBLIC "-//W3C//DTD SVG 20010904//EN"
 "http://www.w3.org/TR/2001/REC-SVG-20010904/DTD/svg10.dtd">
<svg version="1.0" xmlns="http://www.w3.org/2000/svg"
 width="500.000000pt" height="500.000000pt" viewBox="0 0 500.000000 500.000000"
 preserveAspectRatio="xMidYMid meet">

<g transform="translate(0.000000,500.000000) scale(0.100000,-0.100000)"
fill="#0a703f" stroke="none">
<path d="M3090 4329 c-122 -24 -255 -128 -310 -244 -36 -76 -38 -92 -6 -44 94
138 301 160 419 46 57 -56 80 -108 85 -190 7 -116 -47 -211 -151 -263 -69 -35
-175 -35 -244 0 -60 30 -106 78 -132 136 l-21 45 0 -617 c0 -340 -2 -618 -4
-618 -2 0 -61 -9 -132 -20 -92 -14 -180 -20 -306 -20 l-178 0 0 448 -1 447
-20 -40 c-26 -53 -80 -107 -133 -134 -33 -16 -61 -21 -122 -21 -69 0 -85 4
-130 30 -202 115 -190 396 21 496 117 55 258 18 337 -90 23 -31 28 -35 23 -16
-28 93 -108 195 -196 247 -134 80 -310 84 -454 11 -69 -36 -159 -133 -198
-215 l-32 -68 -3 -413 -3 -413 -47 27 c-46 27 -202 131 -271 180 -25 17 -47
24 -83 24 -41 0 -54 -5 -86 -34 -34 -32 -37 -38 -37 -91 0 -56 1 -58 49 -102
64 -57 244 -176 371 -245 l100 -53 5 -576 5 -575 37 -75 c47 -95 130 -177 225
-221 87 -41 209 -50 309 -23 118 32 234 128 285 235 47 97 49 121 49 573 l0
427 178 0 c162 0 279 8 397 26 l45 6 0 -618 c0 -517 3 -630 15 -683 68 -287
392 -435 657 -300 88 45 182 153 221 257 22 57 22 62 25 882 l3 825 82 55
c119 80 236 181 367 316 196 203 229 259 197 336 -18 42 -50 67 -101 75 -55 9
-91 -13 -160 -96 -95 -113 -355 -361 -379 -361 -3 0 -7 219 -9 488 -3 487 -3
487 -27 547 -13 33 -36 78 -51 100 -37 54 -118 129 -168 154 -87 44 -210 60
-312 40z"/>
<path d="M2952 4091 c-55 -14 -109 -59 -137 -114 -106 -214 164 -413 339 -249
104 98 76 280 -54 347 -34 18 -108 25 -148 16z" fill="#ff6300" />
<path d="M1775 3723 c-47 -12 -104 -64 -131 -118 -23 -47 -26 -64 -21 -111 18
-174 223 -256 353 -141 50 43 74 96 74 159 -1 145 -133 247 -275 211z" fill="#ff6300" />
</g>
</svg>
