<svg width="36" height="36" viewBox="0 0 36 36" fill="none" xmlns="http://www.w3.org/2000/svg">
<path d="M27 2.25H9C5.27208 2.25 2.25 5.27208 2.25 9V27C2.25 30.7279 5.27208 33.75 9 33.75H27C30.7279 33.75 33.75 30.7279 33.75 27V9C33.75 5.27208 30.7279 2.25 27 2.25Z" fill="url(#paint0_radial_6026_625092)"/>
<path d="M27 2.25H9C5.27208 2.25 2.25 5.27208 2.25 9V27C2.25 30.7279 5.27208 33.75 9 33.75H27C30.7279 33.75 33.75 30.7279 33.75 27V9C33.75 5.27208 30.7279 2.25 27 2.25Z" fill="url(#paint1_radial_6026_625092)"/>
<path d="M27 2.25H9C5.27208 2.25 2.25 5.27208 2.25 9V27C2.25 30.7279 5.27208 33.75 9 33.75H27C30.7279 33.75 33.75 30.7279 33.75 27V9C33.75 5.27208 30.7279 2.25 27 2.25Z" fill="url(#paint2_radial_6026_625092)"/>
<path d="M25.875 11.8125C25.875 12.7445 25.1195 13.5 24.1875 13.5C23.2555 13.5 22.5 12.7445 22.5 11.8125C22.5 10.8805 23.2555 10.125 24.1875 10.125C25.1195 10.125 25.875 10.8805 25.875 11.8125Z" fill="white"/>
<path fill-rule="evenodd" clip-rule="evenodd" d="M18 23.625C21.1066 23.625 23.625 21.1066 23.625 18C23.625 14.8934 21.1066 12.375 18 12.375C14.8934 12.375 12.375 14.8934 12.375 18C12.375 21.1066 14.8934 23.625 18 23.625ZM18 21.375C19.864 21.375 21.375 19.864 21.375 18C21.375 16.136 19.864 14.625 18 14.625C16.136 14.625 14.625 16.136 14.625 18C14.625 19.864 16.136 21.375 18 21.375Z" fill="white"/>
<path fill-rule="evenodd" clip-rule="evenodd" d="M6.75 17.55C6.75 13.7697 6.75 11.8794 7.48571 10.4356C8.13285 9.16547 9.16547 8.13285 10.4356 7.48571C11.8794 6.75 13.7697 6.75 17.55 6.75H18.45C22.2303 6.75 24.1206 6.75 25.5644 7.48571C26.8345 8.13285 27.8672 9.16547 28.5143 10.4356C29.25 11.8794 29.25 13.7697 29.25 17.55V18.45C29.25 22.2303 29.25 24.1206 28.5143 25.5644C27.8672 26.8345 26.8345 27.8672 25.5644 28.5143C24.1206 29.25 22.2303 29.25 18.45 29.25H17.55C13.7697 29.25 11.8794 29.25 10.4356 28.5143C9.16547 27.8672 8.13285 26.8345 7.48571 25.5644C6.75 24.1206 6.75 22.2303 6.75 18.45V17.55ZM17.55 9H18.45C20.3773 9 21.6874 9.00175 22.7001 9.08449C23.6867 9.16508 24.1911 9.31116 24.543 9.49047C25.3897 9.9219 26.0781 10.6103 26.5095 11.457C26.6888 11.8089 26.835 12.3133 26.9155 13.2999C26.9982 14.3126 27 15.6227 27 17.55V18.45C27 20.3773 26.9982 21.6874 26.9155 22.7001C26.835 23.6867 26.6888 24.1911 26.5095 24.543C26.0781 25.3897 25.3897 26.0781 24.543 26.5095C24.1911 26.6888 23.6867 26.835 22.7001 26.9155C21.6874 26.9982 20.3773 27 18.45 27H17.55C15.6227 27 14.3126 26.9982 13.2999 26.9155C12.3133 26.835 11.8089 26.6888 11.457 26.5095C10.6103 26.0781 9.9219 25.3897 9.49047 24.543C9.31116 24.1911 9.16508 23.6867 9.08449 22.7001C9.00175 21.6874 9 20.3773 9 18.45V17.55C9 15.6227 9.00175 14.3126 9.08449 13.2999C9.16508 12.3133 9.31116 11.8089 9.49047 11.457C9.9219 10.6103 10.6103 9.9219 11.457 9.49047C11.8089 9.31116 12.3133 9.16508 13.2999 9.08449C14.3126 9.00175 15.6227 9 17.55 9Z" fill="white"/>
<defs>
<radialGradient id="paint0_radial_6026_625092" cx="0" cy="0" r="1" gradientUnits="userSpaceOnUse" gradientTransform="translate(13.5 25.875) rotate(-55.3758) scale(28.7096)">
<stop stop-color="#B13589"/>
<stop offset="0.79309" stop-color="#C62F94"/>
<stop offset="1" stop-color="#8A3AC8"/>
</radialGradient>
<radialGradient id="paint1_radial_6026_625092" cx="0" cy="0" r="1" gradientUnits="userSpaceOnUse" gradientTransform="translate(12.375 34.875) rotate(-65.1363) scale(25.4185)">
<stop stop-color="#E0E8B7"/>
<stop offset="0.444662" stop-color="#FB8A2E"/>
<stop offset="0.71474" stop-color="#E2425C"/>
<stop offset="1" stop-color="#E2425C" stop-opacity="0"/>
</radialGradient>
<radialGradient id="paint2_radial_6026_625092" cx="0" cy="0" r="1" gradientUnits="userSpaceOnUse" gradientTransform="translate(0.5625 3.375) rotate(-8.1301) scale(43.7523 9.35815)">
<stop offset="0.156701" stop-color="#406ADC"/>
<stop offset="0.467799" stop-color="#6A45BE"/>
<stop offset="1" stop-color="#6A45BE" stop-opacity="0"/>
</radialGradient>
</defs>
</svg>
