<svg width="36" height="36" viewBox="0 0 36 36" fill="none" xmlns="http://www.w3.org/2000/svg">
<path d="M33.75 18C33.75 9.30152 26.6985 2.25 18 2.25C9.30152 2.25 2.25 9.30152 2.25 18C2.25 26.6985 9.30152 33.75 18 33.75C26.6985 33.75 33.75 26.6985 33.75 18Z" fill="#1275B1"/>
<path d="M14.1959 10.9037C14.1959 11.955 13.2846 12.8073 12.1605 12.8073C11.0363 12.8073 10.125 11.955 10.125 10.9037C10.125 9.8523 11.0363 9 12.1605 9C13.2846 9 14.1959 9.8523 14.1959 10.9037Z" fill="white"/>
<path d="M10.4033 14.2061H13.8827V24.7494H10.4033V14.2061Z" fill="white"/>
<path d="M19.4848 14.2066H16.0054V24.75H19.4848C19.4848 24.75 19.4848 21.4308 19.4848 19.3555C19.4848 18.1098 19.9101 16.8587 21.6072 16.8587C23.5251 16.8587 23.5136 18.4888 23.5046 19.7517C23.4929 21.4025 23.5208 23.0871 23.5208 24.75H27.0002V19.1854C26.9707 15.6323 26.0449 13.9951 22.9989 13.9951C21.19 13.9951 20.0688 14.8164 19.4848 15.5593V14.2066Z" fill="white"/>
</svg>
