<svg width="36" height="36" viewBox="0 0 36 36" fill="none" xmlns="http://www.w3.org/2000/svg">
<path d="M9.50708 22.2662C9.68289 20.8106 10.2799 19.9957 11.4049 19.1602C13.0147 18.0287 15.0254 18.6687 15.0254 18.6687V14.8717C15.5143 14.8591 16.0033 14.8882 16.4867 14.9582V19.8447C16.4867 19.8447 14.4766 19.2047 12.8669 20.3368C11.7425 21.1716 11.1443 21.9872 10.9691 23.4429C10.9636 24.2333 11.1119 25.2665 11.795 26.1599C11.6261 26.0732 11.4539 25.9746 11.2786 25.8639C9.77384 24.8534 9.49975 23.3376 9.50708 22.2662ZM24.7894 7.85092C23.682 6.63751 23.2632 5.41238 23.1119 4.55176H24.5048C24.5048 4.55176 24.2271 6.80834 26.2513 9.02749L26.2794 9.05733C25.7338 8.71416 25.2335 8.30909 24.7894 7.85092ZM31.4998 11.2911V16.0792C31.4998 16.0792 29.7223 16.0097 28.4068 15.675C26.5699 15.2069 25.3893 14.489 25.3893 14.489C25.3893 14.489 24.5738 13.9771 24.5079 13.9415V23.829C24.5079 24.3796 24.3571 25.7544 23.8975 26.9011C23.2974 28.4013 22.3714 29.3859 22.2011 29.5872C22.2011 29.5872 21.0748 30.9182 19.0879 31.8146C17.2969 32.6231 15.7243 32.6026 15.2543 32.6231C15.2543 32.6231 12.5361 32.7308 10.0901 31.1411C9.56111 30.7907 9.06738 30.3939 8.61523 29.9557L8.62745 29.9645C11.0741 31.5541 13.7917 31.4465 13.7917 31.4465C14.2624 31.426 15.8348 31.4465 17.6252 30.6379C19.6104 29.7416 20.7385 28.4107 20.7385 28.4107C20.907 28.2094 21.8372 27.2247 22.4348 25.724C22.8933 24.5779 23.0453 23.2024 23.0453 22.6519V12.7655C23.1112 12.8017 23.9261 13.3136 23.9261 13.3136C23.9261 13.3136 25.1074 14.0321 26.9442 14.4996C28.2602 14.8343 30.0373 14.9039 30.0373 14.9039V11.1519C30.6452 11.2882 31.1635 11.3251 31.4998 11.2911Z" fill="#EE1D52"/>
<path d="M30.0385 11.1519V14.9027C30.0385 14.9027 28.2615 14.833 26.9454 14.4985C25.1087 14.0303 23.9274 13.3125 23.9274 13.3125C23.9274 13.3125 23.1124 12.8006 23.0465 12.7643V22.653C23.0465 23.2036 22.8958 24.579 22.4361 25.7252C21.836 27.2259 20.91 28.2105 20.7397 28.4118C20.7397 28.4118 19.6129 29.7428 17.6265 30.6392C15.8361 31.4477 14.2636 31.4272 13.7929 31.4477C13.7929 31.4477 11.0753 31.5554 8.62869 29.9657L8.61648 29.957C8.35817 29.7068 8.11503 29.4427 7.88824 29.166C7.10749 28.214 6.62891 27.0883 6.50865 26.7671V26.7631C6.31515 26.205 5.9086 24.8645 5.96415 23.5663C6.06243 21.2758 6.8682 19.8699 7.08124 19.5176C7.64546 18.5572 8.37931 17.6978 9.25012 16.978C10.0185 16.3566 10.8895 15.8623 11.8273 15.5152C12.8412 15.1078 13.9268 14.8893 15.0261 14.8717V18.6687C15.0261 18.6687 13.0152 18.0311 11.4061 19.1602C10.2811 19.9957 9.68413 20.8106 9.50833 22.2662C9.501 23.3376 9.77509 24.8534 11.2786 25.8644C11.454 25.9756 11.6261 26.0743 11.7951 26.1604C12.0576 26.5019 12.3774 26.7994 12.7412 27.041C14.2099 27.9707 15.4405 28.0356 17.0143 27.4318C18.0636 27.0281 18.8534 26.1184 19.2197 25.1102C19.4499 24.4808 19.4469 23.8471 19.4469 23.1919V4.55176H23.1094C23.2608 5.41238 23.6796 6.63751 24.7869 7.85092C25.2311 8.30909 25.7314 8.71416 26.277 9.05733C26.4382 9.22406 27.2622 10.0484 28.3201 10.5545C28.8671 10.8161 29.4437 11.0165 30.0385 11.1519Z" fill="black"/>
<path d="M5.05029 25.6016V25.6045L5.14117 25.8509C5.13073 25.8222 5.09696 25.735 5.05029 25.6016Z" fill="#69C9D0"/>
<path d="M11.8269 15.5157C10.8891 15.8628 10.0181 16.3572 9.24966 16.9784C8.37859 17.7 7.64492 18.5612 7.08141 19.5234C6.86836 19.8745 6.06259 21.2815 5.96431 23.572C5.90876 24.8703 6.31531 26.2107 6.50881 26.7688V26.7729C6.6309 27.0912 7.10765 28.2168 7.8884 29.1717C8.11519 29.4485 8.35834 29.7126 8.61665 29.9627C7.78902 29.414 7.0509 28.7508 6.42641 27.9945C5.65237 27.0509 5.17501 25.9369 5.05049 25.608C5.05034 25.6057 5.05034 25.6033 5.05049 25.6011V25.5969C4.85637 25.0394 4.4486 23.6984 4.50537 22.3984C4.60365 20.1079 5.40943 18.702 5.62247 18.3498C6.18582 17.3873 6.91951 16.5261 7.79073 15.8048C8.559 15.1832 9.43003 14.6889 10.368 14.3421C10.953 14.1094 11.5625 13.9379 12.1859 13.8302C13.1253 13.673 14.0848 13.6593 15.0287 13.7898V14.8722C13.9284 14.8894 12.8417 15.1079 11.8269 15.5157Z" fill="#69C9D0"/>
<path d="M23.1117 4.55214H19.4491V23.1929C19.4491 23.8481 19.4491 24.48 19.2221 25.1112C18.8522 26.1188 18.0652 27.0285 17.0165 27.4322C15.4423 28.0384 14.2116 27.9711 12.7435 27.0414C12.379 26.8009 12.0585 26.5043 11.7949 26.1638C13.0457 26.8032 14.1652 26.7921 15.5521 26.2586C16.6002 25.8549 17.3883 24.9451 17.757 23.9371C17.9877 23.3075 17.9847 22.6739 17.9847 22.0192V3.375H23.0421C23.0421 3.375 22.9854 3.83837 23.1117 4.55214ZM30.0377 10.1149V11.1522C29.444 11.0167 28.8685 10.8163 28.3224 10.5549C27.2646 10.0488 26.4404 9.22446 26.2793 9.05771C26.4663 9.17539 26.6603 9.28244 26.8604 9.37833C28.1466 9.99381 29.4132 10.1775 30.0377 10.1149Z" fill="#69C9D0"/>
</svg>
