<svg width="36" height="36" viewBox="0 0 36 36" fill="none" xmlns="http://www.w3.org/2000/svg">
<g clip-path="url(#clip0_6036_49671)">
<path d="M35.2829 9.27836C35.0794 8.51248 34.6783 7.81349 34.1197 7.25134C33.5612 6.6892 32.8647 6.28361 32.1002 6.07518C29.2856 5.31836 18.0356 5.31836 18.0356 5.31836C18.0356 5.31836 6.78565 5.31836 3.9711 6.07518C3.20654 6.28361 2.51013 6.6892 1.95158 7.25134C1.39302 7.81349 0.991903 8.51248 0.788372 9.27836C0.0356446 12.1052 0.0356445 18.0002 0.0356445 18.0002C0.0356445 18.0002 0.0356446 23.8952 0.788372 26.722C0.991903 27.4879 1.39302 28.1869 1.95158 28.749C2.51013 29.3112 3.20654 29.7167 3.9711 29.9252C6.78565 30.682 18.0356 30.682 18.0356 30.682C18.0356 30.682 29.2856 30.682 32.1002 29.9252C32.8647 29.7167 33.5612 29.3112 34.1197 28.749C34.6783 28.1869 35.0794 27.4879 35.2829 26.722C36.0356 23.8952 36.0356 18.0002 36.0356 18.0002C36.0356 18.0002 36.0356 12.1052 35.2829 9.27836Z" fill="#FF0302"/>
<path d="M14.354 23.3534V12.6475L23.7631 18.0004L14.354 23.3534Z" fill="#FEFEFE"/>
</g>
<defs>
<clipPath id="clip0_6036_49671">
<rect width="36" height="36" fill="white"/>
</clipPath>
</defs>
</svg>
