<svg width="36" height="36" viewBox="0 0 36 36" fill="none" xmlns="http://www.w3.org/2000/svg">
<g clip-path="url(#clip0_6036_93086)">
<path fill-rule="evenodd" clip-rule="evenodd" d="M16.4031 0.119141H19.5834C23.9511 0.119141 26.5035 0.760656 28.7693 1.97544C31.035 3.19022 32.8231 4.96462 34.0242 7.23043C35.239 9.49619 35.8805 12.0486 35.8805 16.4163V19.583C35.8805 23.9507 35.239 26.5031 34.0242 28.7689C32.8094 31.0346 31.035 32.8228 28.7693 34.0239C26.5035 35.2386 23.9511 35.8802 19.5834 35.8802H16.4167C12.049 35.8802 9.49661 35.2386 7.23084 34.0239C4.96509 32.8091 3.17705 31.0346 1.97592 28.7689C0.761137 26.5031 0.119629 23.9507 0.119629 19.583V16.4163C0.119629 12.0486 0.761137 9.49619 1.97592 7.23043C3.1907 4.96462 4.96509 3.17657 7.23084 1.97544C9.483 0.760656 12.049 0.119141 16.4031 0.119141Z" fill="#0068FF"/>
<path opacity="0.12" fill-rule="evenodd" clip-rule="evenodd" d="M35.8802 19.0605V19.5831C35.8802 23.9509 35.2387 26.5033 34.024 28.769C32.8092 31.0348 31.0347 32.8228 28.769 34.024C26.5032 35.2388 23.9508 35.8803 19.5831 35.8803H16.4165C12.8426 35.8803 10.4841 35.4508 8.50349 34.6291L5.23828 31.2668L35.8802 19.0605Z" fill="#001A33"/>
<path fill-rule="evenodd" clip-rule="evenodd" d="M5.60098 31.3842C7.27346 31.5691 9.36449 31.0922 10.8492 30.3714C17.2963 33.9349 27.3743 33.7647 33.4746 29.8607C33.7111 29.5058 33.9322 29.1367 34.1373 28.7541C35.3566 26.4801 36.0004 23.9184 36.0004 19.5348V16.3566C36.0004 11.9729 35.3566 9.41119 34.1373 7.13717C32.9318 4.86314 31.1373 3.08227 28.8632 1.86306C26.5892 0.643852 24.0275 0 19.6439 0H16.452C12.7185 0 10.2948 0.469983 8.25842 1.36723C8.14711 1.46691 8.03789 1.56829 7.93097 1.67137C1.95658 7.43062 1.50243 19.9147 6.56851 26.6963C6.57416 26.7063 6.58041 26.7164 6.5873 26.7266C7.36814 27.8773 6.61469 29.8911 5.43659 31.0692C5.2448 31.2473 5.31329 31.3569 5.60098 31.3842Z" fill="white"/>
<path d="M14.8054 12.2402H7.80339V13.7417H12.6625L7.87158 19.6791C7.72146 19.8974 7.6123 20.1022 7.6123 20.5662V20.9484H14.2184C14.546 20.9484 14.8191 20.6755 14.8191 20.3479V19.5425H9.71427L14.2184 13.8918C14.2867 13.8099 14.4095 13.6598 14.4642 13.5915L14.4915 13.5506C14.7508 13.1684 14.8054 12.8408 14.8054 12.445V12.2402Z" fill="#0068FF"/>
<path d="M23.7179 20.9484H24.7143V12.2402H23.2129V20.4434C23.2129 20.7164 23.4313 20.9484 23.7179 20.9484Z" fill="#0068FF"/>
<path d="M18.5861 14.1797C16.7025 14.1797 15.1738 15.7084 15.1738 17.592C15.1738 19.4756 16.7025 21.0043 18.5861 21.0043C20.4697 21.0043 21.9984 19.4756 21.9984 17.592C22.0121 15.7084 20.4834 14.1797 18.5861 14.1797ZM18.5861 19.5984C17.4806 19.5984 16.5797 18.6975 16.5797 17.592C16.5797 16.4864 17.4806 15.5856 18.5861 15.5856C19.6917 15.5856 20.5925 16.4864 20.5925 17.592C20.5925 18.6975 19.7054 19.5984 18.5861 19.5984Z" fill="#0068FF"/>
<path d="M29.1505 14.123C27.2532 14.123 25.7109 15.6654 25.7109 17.5626C25.7109 19.4599 27.2532 21.0023 29.1505 21.0023C31.0477 21.0023 32.5901 19.4599 32.5901 17.5626C32.5901 15.6654 31.0477 14.123 29.1505 14.123ZM29.1505 19.5964C28.0313 19.5964 27.1304 18.6956 27.1304 17.5763C27.1304 16.4571 28.0313 15.5562 29.1505 15.5562C30.2698 15.5562 31.1706 16.4571 31.1706 17.5763C31.1706 18.6956 30.2698 19.5964 29.1505 19.5964Z" fill="#0068FF"/>
<path d="M21.2085 20.9481H22.0138V14.3691H20.6079V20.3612C20.6079 20.6751 20.8809 20.9481 21.2085 20.9481Z" fill="#0068FF"/>
</g>
<defs>
<clipPath id="clip0_6036_93086">
<rect width="36" height="36" fill="white"/>
</clipPath>
</defs>
</svg>
